<svg width="7" height="10" viewBox="0 0 7 10" fill="none" xmlns="http://www.w3.org/2000/svg">
<path d="M3.468 9.12C2.884 9.12 2.324 9.036 1.788 8.868C1.252 8.692 0.812 8.452 0.468 8.148L0.972 6.984C1.348 7.272 1.736 7.484 2.136 7.62C2.544 7.756 2.972 7.824 3.42 7.824C3.964 7.824 4.376 7.716 4.656 7.5C4.936 7.284 5.076 6.968 5.076 6.552C5.076 6.152 4.936 5.852 4.656 5.652C4.384 5.444 3.984 5.34 3.456 5.34H2.088V4.104H3.324C3.78 4.104 4.144 3.992 4.416 3.768C4.688 3.544 4.824 3.236 4.824 2.844C4.824 2.476 4.696 2.196 4.44 2.004C4.192 1.812 3.832 1.716 3.36 1.716C2.512 1.716 1.764 2.004 1.116 2.58L0.612 1.428C0.956 1.108 1.38 0.86 1.884 0.684C2.396 0.508 2.932 0.42 3.492 0.42C4.372 0.42 5.06 0.62 5.556 1.02C6.06 1.412 6.312 1.96 6.312 2.664C6.312 3.168 6.168 3.604 5.88 3.972C5.6 4.332 5.212 4.572 4.716 4.692V4.548C5.3 4.644 5.752 4.884 6.072 5.268C6.4 5.644 6.564 6.116 6.564 6.684C6.564 7.436 6.288 8.032 5.736 8.472C5.184 8.904 4.428 9.12 3.468 9.12Z" fill="white"/>
</svg>
