<svg width="9" height="14" viewBox="0 0 9 14" fill="none" xmlns="http://www.w3.org/2000/svg">
<path fill-rule="evenodd" clip-rule="evenodd" d="M7.00168 1.66611L7.53635 2.20513C7.71212 2.39201 7.80005 2.61012 7.80005 2.8592C7.80005 3.11332 7.71212 3.32896 7.53635 3.50631L4.07191 7L7.53626 10.4937C7.71203 10.671 7.79996 10.8867 7.79996 11.1407C7.79996 11.3899 7.71203 11.608 7.53626 11.7949L7.00159 12.3268C6.8211 12.5089 6.60482 12.6 6.35293 12.6C6.09631 12.6 5.88248 12.5089 5.71143 12.3268L1.07093 7.64701C0.890341 7.47443 0.800049 7.25888 0.800049 7C0.800049 6.74597 0.890341 6.52795 1.07093 6.34592L5.71143 1.66611C5.88729 1.48876 6.10112 1.4 6.35293 1.4C6.60009 1.4 6.81628 1.48876 7.00168 1.66611Z" fill="white" stroke="black"/>
</svg>
